ply
format ascii 1.0
element face 0
property list uchar int vertex_indices
element vertex 987
property float x
property float y
property float z
end_header
-0.0198955 0.148204 0.947918 
-1.0708 0.435304 -2.92381 
-1.11441 0.436583 -2.96629 
-1.28181 0.392484 -3.10427 
-1.09984 0.423003 -2.94536 
-1.15637 0.556403 -3.06787 
-1.02832 0.521763 -2.92733 
-1.24717 0.403198 -3.07653 
-1.15996 0.365862 -2.98055 
-1.27529 0.352678 -3.07898 
-0.935174 0.453717 -2.82886 
-1.03291 0.522953 -2.95984 
-1.06103 0.455745 -2.95594 
-1.21145 0.436762 -3.06962 
-1.11998 0.549495 -3.04045 
-1.17396 0.413051 -3.03006 
-1.32233 0.370329 -3.1327 
-1.06262 0.506649 -2.97733 
-1.29067 0.341501 -3.09356 
-1.02331 0.413711 -2.89892 
-1.01272 0.566184 -2.97925 
-1.01232 0.546979 -2.97025 
-1.03258 0.645668 -3.01375 
-0.861515 0.600388 -2.8618 
-1.09672 0.622318 -3.03734 
-0.921693 0.544593 -2.79655 
-0.957765 0.594496 -2.87139 
-0.924086 0.582716 -2.82978 
-0.952744 0.50658 -2.81006 
-1.01519 0.668672 -2.97194 
-1.01023 0.649006 -2.96393 
-0.892261 0.634953 -2.8581 
0.125149 0.576239 -0.836153 
0.133361 0.575869 -0.757171 
0.0636053 0.609324 -1.16909 
0.0916373 0.556539 -1.14185 
0.125676 0.543382 -0.942707 
0.104256 0.530762 -1.13688 
0.106671 0.540644 -1.08685 
0.0947406 0.607423 -0.949466 
0.0828759 0.645231 -0.73145 
0.0136819 0.637117 -0.74095 
-0.0590272 0.615461 -1.17225 
-0.0147443 0.632897 -1.06991 
-0.012364 0.637764 -0.936971 
-0.0788913 0.611604 -1.12124 
-0.174841 0.429992 0.915289 
-0.172704 0.485201 0.779975 
-0.251948 0.366401 0.760932 
-0.247369 0.411898 0.735046 
-0.238427 0.423729 0.711944 
0.123284 0.102927 0.392153 
0.144876 0.117946 0.315863 
0.157481 0.164716 0.335535 
0.097455 0.163256 0.615689 
0.143983 0.306084 0.690769 
0.152988 0.315755 0.667451 
0.158718 0.296248 0.596551 
0.132367 0.265603 0.659652 
0.0856859 0.262792 0.875107 
0.101301 0.275486 0.856027 
0.120706 0.317626 0.829525 
0.0922159 0.246466 0.836188 
0.10899 0.24242 0.795018 
-0.0146564 0.324029 1.05901 
-0.244651 0.311608 0.834309 
-0.282626 0.274869 0.768392 
-0.287872 0.297001 0.727639 
-0.0948904 0.451097 1.02614 
-0.127021 0.482104 0.872315 
-0.0661391 0.4941 0.920212 
-0.0686823 0.484581 0.953123 
0.0243593 0.503882 0.848078 
0.0293972 0.533916 0.735528 
0.0539383 0.513065 0.754922 
0.0791232 0.499368 0.73444 
0.0829735 0.404269 0.91663 
0.0798667 0.451899 0.850264 
0.0766272 0.439255 0.881566 
0.0762265 0.355532 0.953839 
0.120999 0.36279 0.795909 
0.0200789 0.125285 0.777334 
0.0313634 0.150305 0.780042 
0.0669426 0.0690806 0.50588 
0.0590048 0.128012 0.670716 
0.111186 0.080871 0.396296 
0.0915275 0.0390877 0.358365 
0.094518 0.111383 0.52037 
0.155898 0.333735 0.625537 
0.147729 0.395224 0.677375 
0.181687 0.270962 0.351546 
0.148418 0.402078 0.663184 
0.156659 0.378229 0.579441 
0.151658 0.402017 0.598728 
0.150197 0.407462 0.524307 
0.157536 0.423902 0.314774 
0.135289 0.44194 0.525547 
0.150238 0.436996 0.357491 
0.122908 0.488476 0.469594 
0.105355 0.49698 0.575544 
0.0864806 0.563543 0.33484 
0.100851 0.551507 0.286584 
0.0852054 0.56481 0.338353 
0.0243539 0.580036 0.477768 
-0.0268426 0.561932 0.678795 
-0.044287 0.575809 0.454616 
0.0451054 0.595378 0.285902 
-0.0185266 0.585068 0.351474 
-0.0678665 0.577884 0.373683 
-0.0717657 0.554555 0.694092 
-0.149301 0.549824 0.386879 
-0.0660169 0.583411 0.289627 
-0.156992 0.544869 0.43569 
-0.183157 0.537874 0.353713 
-0.187924 0.515513 0.55962 
-0.218683 0.493347 0.589651 
-0.205991 0.530459 0.280495 
-0.245596 0.502457 0.313101 
-0.244984 0.457414 0.565944 
-0.269367 0.44403 0.489039 
-0.252576 0.403445 0.678117 
-0.274285 0.460207 0.421932 
-0.31298 0.356667 0.544282 
-0.318254 0.364458 0.50045 
-0.316825 0.36003 0.518899 
-0.334507 0.373967 0.406511 
-0.324987 0.341024 0.533741 
-0.37073 0.321046 0.385767 
-0.396913 0.235222 0.385932 
-0.415801 0.257275 0.28986 
-0.389541 0.308372 0.329879 
-0.0935217 0.411064 1.09332 
-0.0479502 0.434546 1.10775 
0.0126186 0.364567 1.1141 
-0.0899153 0.379754 1.0881 
0.129701 -0.0347448 -0.528274 
0.132073 -0.0265811 -0.592083 
0.115966 -0.0765338 -0.350781 
0.103593 -0.10411 -0.544162 
0.129417 -0.032843 -0.621638 
0.0943061 -0.1203 -0.537522 
0.0777276 -0.10317 -0.685417 
0.112373 -0.0784474 -0.329744 
0.0561468 -0.153045 -0.661278 
0.104873 0.00577887 0.197257 
0.178284 0.173038 0.256394 
0.187067 0.178249 0.228582 
0.199742 0.246359 0.197771 
0.157174 0.0655296 0.118812 
0.195936 0.178096 0.117973 
0.195558 0.315649 0.134078 
0.0948764 -0.0163063 0.0509443 
0.113278 -0.00506231 0.00723673 
0.177933 0.14279 0.0659321 
0.199257 0.176625 0.031654 
0.199085 0.25844 0.0627371 
0.206234 0.295158 0.000184227 
0.179316 0.0698779 -0.0995081 
0.181508 0.119469 -0.0474783 
0.217365 0.246993 -0.111807 
0.202385 0.246648 -0.0374969 
0.0926822 -0.0395698 -0.123628 
0.211853 0.273644 -0.202077 
0.186374 0.121891 -0.137934 
0.204866 0.347233 -0.0355712 
0.0652445 -0.0789249 -0.0987534 
-0.383791 0.353711 0.262473 
-0.23201 0.523781 0.178096 
-0.227177 0.518256 0.268204 
-0.434994 0.261079 0.115635 
-0.427547 0.313527 0.10895 
-0.369141 0.398364 0.134412 
-0.303157 0.484034 0.107451 
-0.212369 0.540648 0.105569 
-0.388117 0.380516 0.0422822 
-0.335212 0.460953 0.0293146 
-0.265865 0.516721 -0.00978989 
-0.264149 0.505141 0.0650812 
-0.449376 0.269791 -0.0890229 
-0.429093 0.311556 -0.0312609 
-0.398418 0.396354 -0.0959073 
-0.404306 0.365466 -0.0464873 
-0.226381 0.544571 -0.0412762 
-0.290526 0.497449 -0.0426132 
-0.470898 0.241941 -0.1954 
-0.455007 0.272912 -0.153874 
-0.262315 0.524839 -0.190361 
-0.420715 0.363656 -0.178012 
-0.476143 0.188175 -0.134807 
0.077702 -0.0840666 -0.747428 
0.026465 -0.0805096 -0.946667 
0.0675438 -0.0718152 -0.819592 
0.0234565 -0.0566346 -1.02531 
0.0441803 -0.00502918 -1.0888 
0.0668544 0.00504758 -1.03313 
0.10773 0.0797696 -0.977106 
0.128334 0.0555356 -0.852254 
0.0554289 0.0391769 -1.13735 
0.0743276 0.0097624 -1.01181 
0.118879 0.0762409 -0.924255 
0.0991905 0.140435 -1.11143 
0.0792817 0.141138 -1.19861 
0.130096 0.18019 -1.04209 
0.13828 0.149567 -0.957234 
0.154772 0.130143 -0.854565 
0.165288 0.197017 -0.883668 
0.183114 0.280109 -0.826464 
0.148722 0.196434 -0.960614 
0.160219 0.269158 -0.929657 
0.188491 0.217761 -0.782077 
0.210531 0.344618 -0.718853 
0.138078 0.343623 -1.07346 
0.105588 0.248047 -1.18542 
0.157539 0.291046 -0.952073 
0.178471 0.349558 -0.872547 
0.176 0.443131 -0.778543 
0.150102 0.367485 -0.991936 
0.151206 0.418754 -0.928327 
0.132186 0.352352 -1.09736 
0.114884 0.372814 -1.1715 
0.11757 0.389901 -1.14753 
0.120977 0.375627 -1.12727 
0.129089 0.399652 -1.06269 
0.120198 0.404688 -1.12464 
-0.0839907 0.610106 -1.08261 
-0.162778 0.579605 -0.856706 
-0.0915011 0.60781 -1.00587 
-0.0963934 0.607857 -0.816596 
-0.1399 0.576849 -1.14054 
-0.120035 0.586846 -1.18439 
-0.162626 0.560507 -1.15726 
-0.133773 0.578152 -1.17834 
-0.334289 0.456778 -0.745699 
-0.236354 0.528275 -0.879802 
-0.280091 0.490386 -0.906087 
-0.300861 0.480989 -0.794254 
-0.307903 0.471444 -0.848297 
-0.275342 0.481183 -1.07667 
-0.337769 0.427387 -1.05661 
-0.317617 0.4489 -1.0151 
-0.286095 0.474491 -1.04343 
-0.458535 0.286987 -0.731517 
-0.355588 0.438361 -0.717263 
-0.373112 0.381756 -1.03223 
-0.382664 0.378292 -0.926316 
-0.395662 0.371825 -0.799956 
-0.451439 0.289379 -0.807649 
-0.361716 0.383343 -1.17779 
-0.405063 0.343646 -0.946724 
-0.412558 0.305715 -1.19153 
-0.446422 0.261903 -1.08849 
-0.467274 0.267507 -0.730017 
-0.450709 0.268364 -0.989229 
-0.457134 0.266981 -0.893737 
-0.46233 0.196518 -1.17188 
-0.494346 0.151448 -0.868534 
-0.475708 0.178343 -1.04142 
-0.352655 0.443103 -0.565492 
-0.377808 0.409171 -0.364838 
-0.38467 0.400025 -0.223576 
-0.383009 0.402062 -0.395964 
-0.368402 0.419997 -0.707254 
-0.423289 0.341287 -0.643221 
-0.430375 0.33618 -0.375164 
-0.427766 0.338974 -0.426962 
-0.453814 0.295633 -0.704224 
-0.233825 0.542012 -0.587097 
-0.31323 0.47722 -0.300213 
-0.296813 0.490863 -0.257437 
-0.244992 0.533283 -0.388857 
-0.281287 0.503486 -0.332599 
-0.341514 0.453487 -0.466362 
-0.307155 0.481635 -0.544532 
-0.317762 0.472926 -0.528678 
-0.313835 0.475931 -0.62463 
-0.269012 0.51288 -0.632566 
-0.0703164 0.620915 -0.407875 
-0.0784081 0.61755 -0.4004 
-0.11436 0.602357 -0.440722 
-0.0770439 0.617889 -0.470718 
-0.196346 0.568386 -0.328512 
-0.122787 0.597987 -0.694397 
-0.150532 0.586542 -0.641005 
-0.187221 0.571207 -0.63083 
0.0936976 0.647046 -0.306714 
0.0898202 0.646858 -0.228742 
0.0877916 0.645545 -0.496269 
0.0944004 0.646651 -0.42978 
0.0673987 0.642156 -0.695796 
0.00293606 0.634581 -0.52998 
-0.0540701 0.627351 -0.517883 
0.0304067 0.63757 -0.661182 
0.153648 0.549724 -0.277468 
0.172983 0.512961 -0.404552 
0.170674 0.515857 -0.571502 
0.168634 0.522192 -0.258833 
0.124038 0.602954 -0.457096 
0.135416 0.580381 -0.646122 
0.111297 0.626805 -0.419127 
0.133165 0.585191 -0.566746 
0.121258 0.607619 -0.514344 
0.175781 0.506011 -0.222209 
0.186721 0.458334 -0.236075 
0.205163 0.374053 -0.546998 
0.198441 0.404067 -0.485506 
0.183534 0.466698 -0.638407 
0.187704 0.449444 -0.575941 
0.195801 0.414475 -0.562782 
0.174852 0.505342 -0.567976 
0.200034 0.165478 -0.285053 
0.210237 0.318795 -0.294105 
0.199413 0.166475 -0.650528 
0.208069 0.284184 -0.219846 
0.21114 0.337569 -0.479102 
0.207328 0.279846 -0.460414 
0.19962 0.171316 -0.711873 
0.205544 0.259335 -0.681986 
0.210396 0.324919 -0.426674 
0.147859 0.0198155 -0.578034 
0.138906 -0.0057558 -0.623686 
0.164682 0.0607899 -0.335093 
0.174812 0.0919962 -0.333996 
0.183777 0.119769 -0.358329 
0.170901 0.0843051 -0.493647 
0.193177 0.146374 -0.662195 
0.148556 0.0226436 -0.661948 
0.179636 0.108307 -0.369927 
0.188385 0.386759 -0.00713784 
0.196404 0.34894 0.0466637 
0.164512 0.436368 0.14982 
0.193212 0.368968 0.000206828 
0.188866 0.444263 -0.202171 
0.15214 0.477101 0.177718 
0.152219 0.488842 0.141448 
0.200199 0.376666 -0.146945 
0.0788647 0.596291 0.25278 
0.140489 0.520922 0.0744761 
0.094275 0.581995 0.181015 
0.145628 0.489998 0.206707 
0.141286 0.551251 -0.105927 
0.0907427 0.606552 0.0883984 
0.1659 0.526471 -0.211543 
0.10548 0.592473 0.0212969 
0.0410578 0.604635 0.18023 
0.0663926 0.624027 0.00253949 
0.0861563 0.626098 0.000234365 
-0.0114924 0.60071 0.169863 
-0.0521073 0.596943 0.159185 
0.0596973 0.63331 -0.10199 
-0.0448013 0.627527 -0.191305 
-0.0408144 0.599651 0.144212 
-0.15548 0.557957 0.21053 
-0.131707 0.564269 0.234732 
-0.113424 0.572576 0.21122 
-0.0744001 0.605021 -0.0185376 
-0.163833 0.570218 -0.0213884 
-0.166579 0.577384 -0.155371 
-0.182383 0.567391 -0.101031 
-0.171898 0.557221 0.13359 
-0.488613 0.250938 -0.318815 
-0.457681 0.29583 -0.39228 
-0.506099 0.222087 -0.470843 
-0.451181 0.306902 -0.316444 
-0.491735 0.192459 -0.71075 
-0.497923 0.196658 -0.665968 
-0.507606 0.17949 -0.307032 
-0.536114 0.143384 -0.644964 
-0.706721 0.257654 -2.2584 
-0.471608 0.131777 -2.34985 
-0.484831 0.184943 -2.35124 
-0.624744 0.634964 -2.63251 
-0.474763 0.155127 -1.203 
-0.470707 0.168966 -1.20972 
-0.48093 0.173822 -1.39492 
-0.470015 0.214934 -1.43538 
-0.418903 0.299651 -1.22695 
-0.412022 0.318978 -1.2995 
-0.391371 0.343443 -1.24793 
-0.424845 0.317426 -1.44348 
-0.414069 0.326044 -1.38163 
-0.439964 0.288468 -1.39294 
-0.273053 0.47681 -1.24969 
-0.268998 0.489302 -1.36543 
-0.244477 0.498535 -1.20264 
-0.344973 0.419372 -1.33851 
-0.337103 0.424224 -1.30806 
-0.319462 0.448818 -1.42542 
-0.144068 0.569979 -1.36022 
-0.185885 0.542088 -1.26837 
-0.188543 0.540523 -1.3992 
-0.18266 0.547473 -1.56833 
-0.200538 0.535468 -1.45569 
-0.208378 0.530528 -1.419 
-0.0194042 0.603904 -1.41613 
-0.0512051 0.602818 -1.34971 
-0.102363 0.577334 -1.51481 
-0.123199 0.578234 -1.4408 
0.0777082 0.543946 -1.23829 
0.0601883 0.557017 -1.27135 
-0.0115072 0.551408 -1.48862 
0.0056725 0.547128 -1.44299 
-0.0160067 0.492707 -1.57911 
0.0816673 0.395263 -1.30841 
0.103988 0.493895 -1.21183 
0.0789756 0.369871 -1.32212 
0.021753 0.47775 -1.47997 
0.00690375 0.434472 -1.54931 
0.0229459 0.238075 -1.48528 
0.0966742 0.257212 -1.22782 
0.0573378 0.209258 -1.35165 
0.0710462 0.294936 -1.33322 
0.0765969 0.318297 -1.32171 
0.0467702 0.316975 -1.42823 
0.0274592 0.267915 -1.4798 
0.0256825 0.0762231 -1.29822 
-0.0302687 0.0995625 -1.51004 
0.079662 0.164959 -1.23 
-0.0283999 0.0953789 -1.4988 
-0.0466139 0.101669 -1.56615 
-0.0174494 0.20113 -1.59246 
0.0129247 0.204733 -1.49736 
-0.0647982 0.00287436 -1.43613 
-0.0203521 -0.0207998 -1.2652 
-0.0586109 0.0434383 -1.50156 
0.0168904 0.0309744 -1.26795 
-0.485146 0.234987 -1.6055 
-0.486697 0.267222 -1.64989 
-0.515497 0.22847 -1.70983 
-0.446004 0.315016 -1.58638 
-0.407302 0.371445 -1.58332 
-0.477419 0.32825 -1.71427 
-0.486228 0.352399 -1.79357 
-0.313967 0.470506 -1.58089 
-0.343289 0.503421 -1.77556 
-0.421443 0.434542 -1.77713 
-0.425356 0.429082 -1.77056 
-0.264715 0.507149 -1.57124 
-0.251934 0.531879 -1.67396 
-0.346122 0.504656 -1.79026 
-0.29214 0.532673 -1.79133 
-0.153075 0.579178 -1.77772 
-0.106612 0.580892 -1.68032 
-0.203949 0.574378 -1.86126 
-0.21186 0.558842 -1.72824 
-0.105141 0.537758 -1.74071 
-0.0893554 0.490845 -1.75312 
-0.14735 0.578092 -1.7973 
-0.176224 0.536454 -1.90691 
-0.0148982 0.370547 -1.63856 
-0.0561614 0.39456 -1.72257 
-0.118232 0.463083 -1.83349 
-0.154442 0.402391 -1.94323 
-0.127021 0.296928 -1.87253 
-0.0124802 0.239531 -1.61129 
-0.120041 0.297681 -1.85746 
-0.101154 0.329231 -1.822 
-0.0454107 0.369861 -1.70802 
-0.106503 0.33926 -1.83519 
-0.118097 0.163255 -1.77223 
-0.18255 0.162526 -1.9004 
-0.0941527 0.120517 -1.69276 
-0.204304 0.178646 -1.95566 
-0.175641 0.233503 -1.93843 
-0.172383 0.18802 -1.89886 
-0.174998 0.0411911 -1.73894 
-0.170828 0.0475329 -1.73986 
-0.141991 0.0915338 -1.74643 
-0.178637 0.14674 -1.87971 
-0.322562 0.169748 -2.11951 
-0.244313 0.171589 -2.01264 
-0.380566 0.218955 -2.25207 
-0.32549 0.208285 -2.16422 
-0.34935 0.260341 -2.24165 
-0.256068 0.233178 -2.07356 
-0.252856 0.218854 -2.05991 
-0.274141 0.295885 -2.13981 
-0.269099 0.308305 -2.13885 
-0.17867 0.329859 -1.98357 
-0.175324 0.285416 -1.97252 
-0.203546 0.295581 -2.02424 
-0.321948 0.398547 -2.24759 
-0.310173 0.381575 -2.22477 
-0.208059 0.453037 -2.02377 
-0.277352 0.445377 -2.15817 
-0.309894 0.504913 -2.1963 
-0.287941 0.501416 -2.15595 
-0.257984 0.546079 -2.05863 
-0.221092 0.528578 -2.00261 
-0.243443 0.563684 -2.01524 
-0.308344 0.572955 -2.06471 
-0.350328 0.572527 -2.14709 
-0.333733 0.559344 -2.02979 
-0.366431 0.533773 -1.97987 
-0.37578 0.520584 -1.94244 
-0.38341 0.511495 -1.91956 
-0.423586 0.533649 -2.10813 
-0.407264 0.493327 -1.91728 
-0.435574 0.46297 -1.90208 
-0.549896 0.459694 -2.17046 
-0.473432 0.462814 -1.99327 
-0.521697 0.345422 -1.88345 
-0.483196 0.420416 -1.91506 
-0.561782 0.394647 -2.07765 
-0.560179 0.358661 -2.00925 
-0.56635 0.274976 -1.93507 
-0.532225 0.298327 -1.85351 
-0.612353 0.294877 -2.0952 
-0.791286 0.428521 -2.54256 
-0.761993 0.490255 -2.54769 
-0.872294 0.499534 -2.69431 
-0.839876 0.552826 -2.70857 
-0.691228 0.563236 -2.58398 
-0.798853 0.550193 -2.6624 
-0.632675 0.57305 -2.55552 
-0.835648 0.619035 -2.80442 
-0.736366 0.562316 -2.73449 
-0.724436 0.594417 -2.70751 
-0.722748 0.522871 -2.72604 
-0.798685 0.55701 -2.79855 
-0.679063 0.458608 -2.69095 
-0.634913 0.43326 -2.64995 
-0.676917 0.363966 -2.65666 
-0.546706 0.280438 -2.4811 
-0.494698 0.25481 -2.40832 
-0.481711 0.294317 -2.42656 
-0.400961 0.273433 -2.32465 
-0.491317 0.320794 -2.45261 
-0.503783 0.378712 -2.491 
-0.37308 0.406843 -2.32598 
-0.476925 0.400848 -2.46214 
-0.441871 0.435406 -2.41654 
-0.523433 0.465541 -2.52137 
-0.580837 0.480587 -2.59421 
-0.381826 0.572945 -2.27346 
-0.442837 0.538818 -2.37879 
-0.509891 0.558593 -2.46063 
-0.462153 0.568083 -2.30962 
-0.56987 0.576666 -2.48631 
-0.59452 0.547163 -2.43367 
-0.480344 0.543385 -2.2569 
-0.625501 0.536309 -2.44804 
-0.644763 0.521907 -2.43886 
-0.582436 0.510952 -2.32203 
-0.629919 0.494147 -2.3648 
-0.614764 0.452039 -2.27209 
-0.711066 0.444443 -2.4244 
-0.717006 0.401513 -2.39581 
-0.693886 0.345834 -2.31805 
-1.06156 0.572229 -3.00996 
-0.250379 0.12182 0.778864 
-0.267152 0.186557 0.747413 
-0.257298 0.204499 0.758144 
0.00486442 0.0981773 0.752433 
-0.139194 0.0150871 0.719223 
-0.180643 -0.0248748 0.730999 
-0.273171 -0.00239288 0.642861 
-0.291288 -0.0183805 0.521466 
-0.36361 -0.0214606 0.274511 
-0.261669 -0.0414751 0.524526 
-0.235613 -0.029407 0.635979 
-0.222576 -0.0343233 0.628469 
-0.211874 -0.0690876 0.468647 
-0.17071 -0.0580272 0.579293 
-0.117881 -0.0479614 0.595064 
-0.149694 -0.0886893 0.421068 
-0.114185 -0.104593 0.321093 
-0.0667439 -0.0959106 0.332579 
-0.0253156 -0.000407964 0.547387 
-0.0151603 0.0325586 0.623741 
-0.0490176 -0.0234216 0.552135 
-0.0613193 -0.0137529 0.627923 
-0.0151066 -0.0575313 0.348948 
0.0399884 -0.0257908 0.348738 
-0.0107085 -0.0775119 0.289317 
-0.34717 0.187425 0.591774 
-0.377388 0.226004 0.46525 
-0.325615 0.222196 0.646888 
-0.340947 0.103928 0.660456 
-0.409293 0.089254 0.343835 
-0.385312 0.135118 0.473844 
-0.429197 0.14898 0.28031 
-0.366521 0.0921712 0.532279 
-0.343012 0.0417782 0.525009 
-0.37226 0.00321909 0.307263 
-0.245757 0.0525944 0.836433 
-0.235968 0.0986089 0.833977 
-0.235303 0.100632 0.921508 
-0.0844194 0.0720697 0.857506 
-0.163912 0.0506949 0.933046 
-0.218604 0.00977429 0.830524 
-0.041981 -0.192823 -0.477494 
-0.0409588 -0.189063 -0.432858 
0.00780095 -0.208544 -0.497838 
0.0354564 -0.120072 -0.225844 
-0.00601979 -0.140784 -0.217968 
-0.00760096 -0.171437 -0.706414 
0.012798 -0.159361 -0.707471 
-0.367819 -0.113833 -1.18369 
-0.418263 -0.0958662 -0.92965 
-0.42091 -0.0937276 -0.92867 
-0.405321 -0.120864 -0.778444 
-0.338731 -0.159399 -0.945203 
-0.385151 -0.120943 -0.958044 
-0.362438 -0.12728 -1.09073 
-0.0326234 -0.133693 -0.0337135 
-0.0186912 -0.124488 -0.0241449 
-0.0292193 -0.114482 0.10873 
0.0279384 -0.0981205 -0.0293232 
0.0405493 -0.0832395 0.0334438 
-0.0386703 -0.157664 -0.202988 
-0.306322 -0.156902 -1.06437 
-0.306853 -0.167442 -0.965063 
-0.296982 -0.169424 -0.972109 
-0.28561 -0.174722 -0.952217 
-0.300669 -0.157241 -1.07465 
-0.234637 -0.192332 -0.915422 
-0.150228 -0.184042 -0.937086 
-0.0986292 -0.202666 -0.763786 
-0.0989762 -0.202316 -0.766485 
-0.226616 -0.180335 -1.03062 
-0.114424 -0.165627 -1.0111 
-0.157972 -0.143415 -1.1949 
-0.119884 -0.163279 -1.03147 
-0.0805572 -0.195416 -0.789188 
-0.0937987 -0.14065 -1.07723 
-0.0523522 -0.18745 -0.750594 
-0.0370124 -0.122207 -1.00404 
-0.00985711 -0.136147 -0.872766 
-0.100069 -0.115983 -1.19893 
-0.496174 0.136695 -0.86438 
-0.493105 0.0943305 -0.846359 
-0.501675 0.122987 -0.752787 
-0.504473 0.130796 -0.719758 
-0.480337 0.110141 -1.08339 
-0.475539 0.0914204 -1.16282 
-0.46457 -0.0121395 -0.944184 
-0.456089 -0.0231812 -0.97959 
-0.477906 0.0165767 -0.973316 
-0.430598 -0.0617675 -1.10876 
-0.433555 -0.087304 -0.825296 
-0.437556 -0.0606772 -0.987058 
-0.446063 -0.0279979 -0.396608 
-0.442838 -0.0240373 -0.332185 
-0.466518 0.0194521 -0.337035 
-0.429725 -0.0934514 -0.624293 
-0.431656 -0.083555 -0.583294 
-0.440534 -0.0532018 -0.493323 
-0.147099 -0.198767 -0.481983 
-0.107724 -0.178146 -0.271885 
-0.171826 -0.210417 -0.596204 
-0.164853 -0.183039 -0.235444 
-0.0922766 -0.18886 -0.445217 
-0.159707 -0.217231 -0.710052 
-0.0668839 -0.175097 -0.303796 
-0.196903 -0.184084 -0.263036 
-0.310183 -0.184142 -0.613594 
-0.287154 -0.177024 -0.463258 
-0.324024 -0.18944 -0.715291 
-0.226167 -0.188414 -0.40161 
-0.216855 -0.218221 -0.704496 
-0.387796 -0.111811 -0.457065 
-0.352647 -0.120812 -0.283846 
-0.387365 -0.0984659 -0.333821 
-0.32193 -0.167132 -0.478609 
-0.405525 -0.118018 -0.641183 
-0.404663 -0.125778 -0.704793 
-0.359514 -0.0721654 -0.00543177 
-0.357061 -0.0298923 0.256847 
-0.342934 -0.0596854 0.147532 
-0.374796 -0.0859285 -0.159815 
-0.354886 -0.0879953 -0.0772259 
-0.326584 -0.112307 -0.0865236 
-0.250699 -0.118594 0.123068 
-0.240245 -0.124975 0.0975762 
-0.240583 -0.133282 0.0360186 
-0.220037 -0.148644 -0.0347567 
-0.200033 -0.151346 -0.0138671 
-0.249507 -0.144825 -0.066724 
-0.198934 -0.146968 0.0204479 
-0.150686 -0.1276 0.208034 
-0.141204 -0.122697 0.237755 
-0.0856563 -0.124072 0.166861 
-0.0678114 -0.149608 -0.0604195 
-0.0959721 -0.16829 -0.182249 
-0.147526 -0.167564 -0.120722 
-0.0799768 -0.142497 0.0106418 
-0.468687 0.16557 -0.0710125 
-0.47821 0.182661 -0.145469 
-0.45065 0.155423 0.0911011 
-0.469265 0.130866 -0.109095 
-0.465423 0.136304 -0.0675151 
-0.465269 0.11403 -0.086877 
-0.446286 0.0633049 0.0274246 
-0.403216 0.00590061 0.11664 
-0.417117 0.0607051 0.228639 
-0.418734 -0.0332999 -0.147639 
-0.437897 0.0148762 -0.0996899 
-0.432464 0.0191322 -0.0438562 
-0.48463 0.0399278 -0.388254 
-0.550662 0.0836667 -0.470536 
-0.518607 0.0726039 -0.339697 
-0.52833 0.0652372 -0.577924 
-0.519868 0.117586 -0.640399 
-0.517517 0.0829878 -0.331 
-0.48297 0.0631747 -0.241811 
-0.470103 0.0486242 -1.41248 
-0.451585 -0.0056247 -1.21877 
-0.431054 -0.0432114 -1.30826 
-0.477388 0.136685 -1.24243 
-0.478077 0.10636 -1.33863 
-0.477468 0.0935711 -1.34126 
-0.142026 -0.0810531 -1.38739 
-0.0887426 -0.0816119 -1.2842 
-0.144226 -0.0560605 -1.46665 
-0.120866 -0.00627323 -1.57178 
-0.143555 -0.0278588 -1.55013 
-0.232746 -0.116537 -1.35998 
-0.215257 -0.138761 -1.25906 
-0.240542 -0.0763858 -1.52611 
-0.22794 -0.0846671 -1.48415 
-0.357579 -0.0738282 -1.48437 
-0.321648 -0.107264 -1.35963 
-0.276262 -0.11953 -1.3589 
-0.359277 -0.0638085 -1.5343 
-0.35394 -0.119162 -1.23508 
-0.435317 -0.0126904 -1.49948 
-0.388344 -0.0678768 -1.39273 
-0.431049 -0.00740279 -1.56481 
-0.496058 0.0865588 -1.69218 
-0.519732 0.0987486 -1.86213 
-0.492909 0.172036 -1.58484 
-0.507392 0.159007 -1.66039 
-0.542909 0.216762 -1.82205 
-0.548279 0.21418 -1.8494 
-0.209839 -0.00618791 -1.69307 
-0.187991 -0.00795328 -1.66317 
-0.304372 0.0538111 -1.92554 
-0.274252 0.0778558 -1.93818 
-0.385565 0.0249081 -1.89728 
-0.293617 -0.0476942 -1.65253 
-0.253587 -0.0150309 -1.72872 
-0.32667 0.0131094 -1.83976 
-0.439902 0.0250564 -1.83478 
-0.354315 -0.0266533 -1.71354 
-0.426471 0.0234744 -1.84555 
-0.435457 -0.00205384 -1.57868 
-0.439749 0.0127529 -1.72919 
-0.443139 0.0185615 -1.77502 
-0.525933 0.103922 -1.9902 
-0.540983 0.122011 -2.10975 
-0.544497 0.128627 -2.14625 
-0.529575 0.145194 -2.24111 
-0.476584 0.118145 -2.16588 
-0.388694 0.081658 -2.04733 
-0.464095 0.146379 -2.23529 
-0.380049 0.116396 -2.10934 
-0.406735 0.11542 -2.13358 
-0.387398 0.153353 -2.17951 
-0.581593 0.234673 -1.97759 
-0.585141 0.209788 -1.99753 
-0.593396 0.201396 -2.03879 
-0.589681 0.175787 -2.09399 
-0.776605 0.361135 -2.5215 
-0.797457 0.403703 -2.54633 
-0.683595 0.327129 -2.62628 
-0.762192 0.390328 -2.7248 
-0.70989 0.309199 -2.59912 
-0.877878 0.422143 -2.78453 
-0.631114 0.208042 -2.26588 
-0.721692 0.29192 -2.47986 
-0.721708 0.293551 -2.53263 
-0.6561 0.249555 -2.46054 
-0.610666 0.226671 -2.42592 
-0.548439 0.201656 -2.36827 
-0.472249 0.19053 -2.31553 
-0.602851 0.301651 -2.55159 
-0.672321 0.311545 -2.27054 
-0.770666 0.363133 -2.50769 
-0.679092 0.279569 -2.29747 
-0.71234 0.284867 -2.42475 
-0.898687 0.687511 -2.91246 
-0.987208 0.678939 -3.003 
-0.977955 0.70585 -3.00584 
-0.883187 0.826289 -2.96073 
-0.824668 1.06643 -3.01235 
-0.962639 0.783116 -3.02549 
-0.858979 1.09022 -3.05836 
-0.816164 1.10479 -3.02102 
-0.862422 1.11852 -3.07474 
-0.897101 1.20328 -3.14452 
-0.95953 0.862161 -3.05687 
-0.82473 1.34605 -3.1376 
-0.907637 0.989901 -3.06281 
-0.919179 1.05913 -3.10342 
-0.891846 1.25788 -3.16205 
-0.944815 0.982899 -3.0938 
-0.936511 1.09995 -3.12951 
-1.02124 0.807921 -3.07489 
-0.962152 1.01881 -3.11338 
-1.04247 0.732769 -3.06129 
-1.04939 0.836272 -3.10266 
-0.872613 0.679267 -2.87216 
-0.906328 0.73453 -2.92138 
-0.889105 0.749751 -2.91571 
-0.878972 0.878847 -2.96381 
-0.853263 0.96399 -2.98184 
-0.884338 0.897404 -2.97546 
-0.844146 1.15217 -3.05837 
-0.798625 1.24149 -3.06432 
-0.878135 1.02945 -3.02882 
-0.860933 1.13108 -3.06148 
-0.851295 1.29162 -3.12802 
-0.820674 1.3386 -3.12511 
-0.832314 1.46804 -3.19557 
-0.940718 1.00022 -3.06395 
-0.906049 1.28462 -3.173 
-0.960747 0.973869 -3.06824 
-0.954373 1.04457 -3.10389 
-1.07422 0.74721 -3.08102 
-1.09179 0.699952 -3.07524 
-0.986732 0.976816 -3.1065 
0.138451 0.722374 -0.778904 
0.111303 0.670908 -0.821995 
0.12217 0.693311 -0.879178 
0.183364 0.861173 -0.914577 
0.157077 0.796517 -0.950743 
0.25837 1.03386 -1.07725 
0.23447 0.980229 -1.01207 
0.17987 0.84979 -0.973189 
0.256089 1.02546 -1.15395 
0.262638 1.04095 -1.16197 
0.17966 0.847362 -1.06584 
0.184269 0.884512 -1.15698 
0.192308 0.907031 -1.17942 
0.16206 0.849406 -1.18622 
0.0920062 0.640086 -0.948062 
0.0968172 0.724301 -1.20274 
0.0827494 0.69152 -1.19198 
0.128722 0.731049 -0.816217 
0.0861857 0.666099 -0.801312 
0.0936103 0.733578 -0.909965 
0.0760674 0.712492 -0.920352 
0.161325 0.789702 -0.833887 
0.16367 0.860182 -0.939519 
0.230488 0.992939 -1.07698 
0.0793191 0.728041 -0.946914 
0.259425 1.03858 -1.07358 
0.126739 0.815714 -1.01534 
0.17706 0.906691 -1.09194 
0.154506 0.860253 -1.10212 
0.215724 0.967833 -1.17136 
0.174136 0.886369 -1.18836 
0.133831 0.818937 -1.11637 
0.150527 0.840192 -1.18919 
0.0423335 0.66183 -0.985202 
-0.210533 0.420103 0.779571 
-0.0896568 0.22192 1.04451 
-0.102323 0.239366 1.04881 
-0.172453 0.342712 1.00738 
-0.213343 0.277165 0.978635 
0.00953437 0.124246 0.808963 
0.0190971 0.235342 0.963552 
-0.197896 0.0798447 0.928593 
-0.122404 0.092192 0.862701 
-0.147615 0.111277 0.854706 
-0.0567774 0.138588 0.759436 
-0.222742 0.212395 0.77401 
-0.103495 0.140492 0.787869 
-0.0271305 0.110561 0.77597 
-0.0546724 0.176446 0.968413 
-0.0506522 0.159753 0.878124 
-0.0371673 0.172342 0.998726 
-0.126938 0.182347 0.776704 
-0.165561 0.22999 0.946799 
-0.238502 0.247666 0.82624 
-0.218188 0.240622 0.846852 
-0.16025 0.2138 0.864509 
0.163813 0.0843182 0.0802069 
0.205527 0.290783 -0.0198355 
0.165679 0.0883746 0.185149 
-0.303147 0.493812 -0.120442 
-0.371989 0.427525 -0.114356 
0.21029 -0.376595 -0.453249 
0.196779 -0.364581 -0.454886 
0.0628159 -0.186285 -0.36046 
0.0676286 -0.199355 -0.373993 
0.0766486 -0.241105 -0.427489 
0.203318 -0.331677 -0.370492 
0.279021 -0.480253 -0.589477 
0.352483 -0.560386 -0.628582 
0.123274 -0.302657 -0.474829 
0.247754 -0.452731 -0.611386 
0.424898 -0.646514 -0.701318 
0.375378 -0.597144 -0.705574 
0.449808 -0.680473 -0.755037 
0.195857 -0.395141 -0.594663 
0.456529 -0.694762 -0.829008 
0.278235 -0.48983 -0.665966 
0.439843 -0.678318 -0.867071 
0.284861 -0.502182 -0.725016 
0.19972 -0.40226 -0.636121 
0.244178 -0.435886 -0.701995 
0.27765 -0.445752 -0.782814 
0.14224 -0.319815 -0.582665 
0.187237 -0.351413 -0.669384 
0.116421 -0.270809 -0.623157 
0.0950954 -0.247329 -0.620249 
0.0954498 -0.246498 -0.627196 
0.108724 -0.229297 -0.694455 
0.0888861 -0.177139 -0.531543 
0.112934 -0.20315 -0.529189 
0.142114 -0.247294 -0.599015 
0.118082 -0.206228 -0.515373 
0.279562 -0.441832 -0.781426 
0.296639 -0.470879 -0.745491 
0.283465 -0.45541 -0.715574 
0.450987 -0.677975 -0.860745 
0.357304 -0.561682 -0.792025 
0.441026 -0.660865 -0.835805 
0.414152 -0.622645 -0.769073 
0.355795 -0.540092 -0.715239 
0.377635 -0.571052 -0.685763 
0.349716 -0.531458 -0.685894 
0.318681 -0.487694 -0.617323 
0.40476 -0.611368 -0.653769 
0.3362 -0.519884 -0.552563 
0.249565 -0.394365 -0.518634 
0.175315 -0.287315 -0.424978 
0.163844 -0.270762 -0.428051 
0.186706 -0.30448 -0.474512 
0.0840746 -0.133815 -0.25745 
0.161632 -0.256838 -0.330871 
0.193568 -0.311929 -0.39932 
0.0717778 -0.12048 -0.298968 
-0.670369 0.134944 -0.697297 
-0.585151 0.111326 -0.568917 
-0.758341 0.152266 -0.753822 
-0.868124 0.155523 -0.7678 
-0.834889 0.154228 -0.756552 
-0.708317 0.129968 -0.627974 
-0.690043 0.108077 -0.546034 
-1.00913 0.148961 -0.806005 
-1.04789 0.140251 -0.782761 
-1.19796 0.156135 -0.872636 
-1.18827 0.156471 -0.848455 
-0.784209 0.115897 -0.581553 
-1.11165 0.148569 -0.794929 
-1.07971 0.145291 -0.716339 
-1.06342 0.149452 -0.667857 
-1.15775 0.157508 -0.725626 
-0.836252 0.136452 -0.507754 
-1.06019 0.155003 -0.633681 
-1.02935 0.154712 -0.605564 
-0.845968 0.134454 -0.526564 
-0.797265 0.149151 -0.417496 
-0.789617 0.140717 -0.447261 
-0.812655 0.151686 -0.420199 
-0.597352 0.158345 -0.313769 
-0.65118 0.12455 -0.410782 
-0.747808 0.155665 -0.377181 
-0.558915 0.146976 -0.582962 
-0.691981 0.146272 -0.728901 
-0.671969 0.146894 -0.706999 
-0.710227 0.159241 -0.664367 
-0.700623 0.158588 -0.657862 
-0.793685 0.159569 -0.728738 
-0.84618 0.159084 -0.77686 
-0.84503 0.159431 -0.676589 
-0.946832 0.154783 -0.74624 
-0.928738 0.16354 -0.695283 
-1.22875 0.162241 -0.889446 
-1.04568 0.164734 -0.752882 
-1.17769 0.165184 -0.842455 
-1.25792 0.161509 -0.850297 
-1.06488 0.162161 -0.717198 
-0.994336 0.162272 -0.690085 
-0.875352 0.163848 -0.60824 
-1.18075 0.162345 -0.752202 
-1.03734 0.164471 -0.621257 
-1.00007 0.164649 -0.619761 
-0.838076 0.164789 -0.520745 
-0.650342 0.165009 -0.456293 
-0.823598 0.161144 -0.402607 
-0.6617 0.168724 -0.349158 
-0.630515 0.172684 -0.301625 
-0.759397 0.163811 -0.382996 
-0.719014 0.164647 -0.387368 
