<svg xmlns="http://www.w3.org/2000/svg" width="144" height="38.813" viewBox="0 0 144 38.813">
    <defs>
        <style>
            .a-logo {
                fill: #007e7a;
            }

            .b-logo {
                fill: #edb111;
            }

            .c-logo {
                fill: currentColor;
            }

        </style>
    </defs>
    <path class="a-logo" d="M15.9,19.277V8.351L0,.162V13.549a3.221,3.221,0,0,0,1.746,2.864L12.993,22.2a3.863,3.863,0,0,1,2.095,3.436v10.6a2.577,2.577,0,0,0,2.577,2.584H30.183a2.577,2.577,0,0,0,2.577-2.577V25.072A2.577,2.577,0,0,0,30.183,22.5H19.129A3.22,3.22,0,0,1,15.9,19.277" transform="translate(0 -0.009)"></path>
    <path class="b-logo" d="M40.529,8.351H15.961L0,.173H27.41a4.829,4.829,0,0,1,2.2.53L40.97,6.524a.97.97,0,0,1-.441,1.827" transform="translate(0 -0.009)"></path>
    <rect class="c-logo" width="1.819" height="9.968" transform="translate(51.48 0.162)"></rect>
    <path class="c-logo" d="M78.972,1.695h-2.84V.171H83.66V1.695H80.791v8.445H78.972Z" transform="translate(-4.007 -0.009)"></path>
    <rect class="c-logo" width="1.819" height="9.968" transform="translate(80.822 0.162)"></rect>
    <path class="c-logo" d="M91.289,1.695h-2.84V.171h7.527V1.695H93.108v8.445H91.289Z" transform="translate(-4.655 -0.009)"></path>
    <path class="c-logo" d="M109.881,1.695h-2.84V.171h7.528V1.695H111.7v8.445h-1.819Z" transform="translate(-5.634 -0.009)"></path>
    <path class="c-logo" d="M77.69,24.973a6.31,6.31,0,0,1-2.574.444A4.7,4.7,0,0,1,70.029,20.4a5.016,5.016,0,0,1,5.324-5.268,5.725,5.725,0,0,1,2.426.444l-.4,1.45a4.82,4.82,0,0,0-1.952-.385,3.321,3.321,0,0,0-3.49,3.668A3.272,3.272,0,0,0,75.411,23.9a5.092,5.092,0,0,0,1.982-.369Z" transform="translate(-3.686 -0.797)"></path>
    <path class="c-logo" d="M79.755,25.278V15.309h2.07L84.4,19.584a27.446,27.446,0,0,1,1.7,3.342h.029c-.118-1.332-.162-2.619-.162-4.142V15.309h1.68v9.968H85.773l-2.6-4.372a34.676,34.676,0,0,1-1.79-3.452l-.044.015c.075,1.286.089,2.6.089,4.245v3.564Z" transform="translate(-4.198 -0.806)"></path>
    <path class="c-logo" d="M91.683,20.33c0,2.025,1.022,3.637,2.765,3.637S97.2,22.341,97.2,20.255c0-1.878-.933-3.653-2.752-3.653s-2.765,1.672-2.765,3.727m7.441-.148c0,3.342-2.027,5.249-4.777,5.249-2.81,0-4.586-2.144-4.586-5.072,0-3.061,1.923-5.22,4.732-5.22,2.911,0,4.63,2.2,4.63,5.043" transform="translate(-4.724 -0.797)"></path>
    <path class="c-logo" d="M56.2,16.833H53.357V15.309h7.527v1.523H58.015v8.445H56.2Z" transform="translate(-2.808 -0.806)"></path>
    <path class="c-logo" d="M68.111,20.856H64.354v2.928h4.2v1.494H62.536V15.309h5.8V16.8H64.354v2.573h3.757Z" transform="translate(-3.291 -0.806)"></path>
    <path class="c-logo" d="M101.3,15.309h1.819v8.445h4.1v1.523H101.3Z" transform="translate(-5.331 -0.806)"></path>
    <path class="c-logo" d="M114.907,12.844l-1.849,1.774h-1.464l1.3-1.774Zm-5.147,7.365c0,2.025,1.02,3.637,2.772,3.637s2.75-1.626,2.75-3.712c0-1.878-.932-3.653-2.75-3.653s-2.772,1.672-2.772,3.727m7.438-.148c0,3.342-2.025,5.249-4.777,5.249-2.81,0-4.584-2.144-4.584-5.072,0-3.061,1.923-5.22,4.732-5.22,2.911,0,4.628,2.2,4.628,5.043" transform="translate(-5.676 -0.676)"></path>
    <path class="c-logo" d="M127.331,24.813a9.853,9.853,0,0,1-3.209.563,5.366,5.366,0,0,1-3.9-1.332,4.911,4.911,0,0,1-1.386-3.666c0-3.151,2.247-5.176,5.545-5.176a6.612,6.612,0,0,1,2.648.473l-.4,1.464a5.365,5.365,0,0,0-2.268-.428,3.336,3.336,0,0,0-3.624,3.579,3.291,3.291,0,0,0,3.465,3.6,3.47,3.47,0,0,0,1.376-.208V21.2h-1.76V19.77h3.52Z" transform="translate(-6.254 -0.8)"></path>
    <rect class="c-logo" width="1.819" height="9.968" transform="translate(122.94 14.504)"></rect>
    <path class="c-logo" d="M141.006,24.973a6.3,6.3,0,0,1-2.573.444,4.7,4.7,0,0,1-5.087-5.014,5.015,5.015,0,0,1,5.323-5.268,5.725,5.725,0,0,1,2.426.444l-.4,1.45a4.829,4.829,0,0,0-1.952-.385,3.32,3.32,0,0,0-3.49,3.668,3.271,3.271,0,0,0,3.475,3.593,5.089,5.089,0,0,0,1.981-.369Z" transform="translate(-7.018 -0.797)"></path>
    <path class="c-logo" d="M144.042,20.33c0,2.025,1.02,3.637,2.772,3.637s2.75-1.626,2.75-3.712c0-1.878-.932-3.653-2.75-3.653s-2.772,1.672-2.772,3.727m7.438-.148c0,3.342-2.027,5.249-4.777,5.249-2.81,0-4.584-2.144-4.584-5.072,0-3.061,1.923-5.22,4.732-5.22,2.911,0,4.628,2.2,4.628,5.043" transform="translate(-7.48 -0.797)"></path>
    <path class="c-logo" d="M56.565,40.416l-3.224-9.968h1.982l1.36,4.526c.385,1.257.71,2.426.97,3.637h.03c.266-1.182.621-2.4,1.02-3.6l1.449-4.555h1.941L58.65,40.416Z" transform="translate(-2.807 -1.603)"></path>
    <path class="c-logo" d="M67.673,36.216l-.779-2.454c-.193-.606-.355-1.286-.5-1.863h-.029c-.148.577-.3,1.271-.474,1.863l-.768,2.455Zm-2.858,1.375-.853,2.825H62.084l3.188-9.968h2.322l3.245,9.968H68.886l-.9-2.825Z" transform="translate(-3.268 -1.603)"></path>
    <path class="c-logo" d="M72.791,30.448h1.82v8.445h4.1v1.523H72.791Z" transform="translate(-3.831 -1.603)"></path>
    <path class="c-logo" d="M86.063,35.994H82.306v2.929h4.2v1.493H80.488V30.448h5.8v1.494H82.306v2.573h3.757Z" transform="translate(-4.236 -1.603)"></path>
    <path class="c-logo" d="M58.461,10.139V.171h2.071L63.1,4.445a27.058,27.058,0,0,1,1.7,3.342h.031c-.119-1.332-.164-2.619-.164-4.142V.171h1.686v9.968H64.485L61.878,5.762a34.677,34.677,0,0,1-1.79-3.446l-.044.015c.073,1.286.089,2.6.089,4.245v3.564Z" transform="translate(-3.077 -0.009)"></path>
    <path class="c-logo" d="M68.945,8.148a5.019,5.019,0,0,0,2.411.636c1.167,0,1.819-.548,1.819-1.36,0-.754-.5-1.2-1.774-1.663-1.643-.592-2.692-1.464-2.692-2.9C68.708,1.248,70.068,0,72.224,0a5.26,5.26,0,0,1,2.4.5l-.444,1.464a4.213,4.213,0,0,0-1.981-.473c-1.155,0-1.656.621-1.656,1.2,0,.768.577,1.124,1.907,1.641,1.73.65,2.573,1.525,2.573,2.958,0,1.6-1.213,2.987-3.786,2.987a5.928,5.928,0,0,1-2.691-.621Z" transform="translate(-3.607)"></path>
    <path class="c-logo" d="M99.432.171V5.983c0,1.952.814,2.854,2.04,2.854,1.317,0,2.1-.9,2.1-2.854V.171h1.819V5.866c0,3.076-1.582,4.436-3.978,4.436-2.307,0-3.8-1.286-3.8-4.422V.171Z" transform="translate(-5.138 -0.009)"></path>
    <path class="c-logo" d="M117.16,5.191c0,2.025,1.02,3.637,2.765,3.637s2.75-1.62,2.75-3.712c0-1.878-.932-3.653-2.75-3.653s-2.765,1.672-2.765,3.727m7.438-.148c0,3.342-2.027,5.249-4.777,5.249-2.81,0-4.584-2.144-4.584-5.072,0-3.061,1.923-5.22,4.732-5.22,2.911,0,4.628,2.2,4.628,5.043" transform="translate(-6.065)"></path>
</svg>